<svg xmlns="http://www.w3.org/2000/svg" viewBox="0 0 14 14"><defs><style>.a{fill:none;stroke:#000;stroke-linecap:round;stroke-linejoin:round;}</style></defs><title>computer-logo-facebook-2</title><path class="a" d="M8.03,4.017c0-1.036.47-1.036.939-1.036h.6a.76.76,0,0,0,.761-.76V1.3A.758.758,0,0,0,9.587.545C9.022.536,8.429.52,8.168.52A2.865,2.865,0,0,0,5.217,3.725V5.171H4.425a.759.759,0,0,0-.759.76v.942a.76.76,0,0,0,.759.76h.792V12.98a.5.5,0,0,0,.5.5H7.53a.5.5,0,0,0,.5-.5V7.633h.876a.76.76,0,0,0,.76-.76V5.931a.76.76,0,0,0-.76-.76H8.03Z"/></svg>